<?xml version="1.0" encoding="UTF-8" standalone="no"?>
<!-- Created with Inkscape (http://www.inkscape.org/) -->
<svg xmlns:rdf="http://www.w3.org/1999/02/22-rdf-syntax-ns#" xmlns="http://www.w3.org/2000/svg" xmlns:cc="http://web.resource.org/cc/" xmlns:dc="http://purl.org/dc/elements/1.1/" xmlns:svg="http://www.w3.org/2000/svg" xmlns:inkscape="http://www.inkscape.org/namespaces/inkscape" xmlns:sodipodi="http://sodipodi.sourceforge.net/DTD/sodipodi-0.dtd" xmlns:ns1="http://sozi.baierouge.fr" xmlns:xlink="http://www.w3.org/1999/xlink" id="svg2031" viewBox="0 0 471.12 247.32" version="1.0" inkscape:version="0.91 r13725">
  <g id="layer1" transform="translate(-120.18 -115.94)">
    <g id="g6505" transform="matrix(1.0612 0 0 1.1576 -57.351 -56.459)">
      <path id="path4699" style="fill-rule:evenodd;stroke:#000000;stroke-width:1px;fill:#416453" d="m555.59 333.22h-332.65c40.6 17.67 100 28.87 166.34 28.87s125.72-11.2 166.31-28.87z"/>
      <path id="path4697" style="fill-rule:evenodd;stroke:#000000;stroke-width:1px;fill:#64787f" d="m572.56 324.97h-366.59c5.16 2.9 10.92 5.62 16.97 8.25h332.65c6.05-2.63 11.81-5.35 16.97-8.25z"/>
      <path id="path4695" style="fill-rule:evenodd;stroke:#000000;stroke-width:1px;fill:#416453" d="m588 314.66h-397.44c4.58 3.56 9.61 7.05 15.41 10.31h366.59c5.81-3.27 10.86-6.74 15.44-10.31z"/>
      <path id="path4693" style="fill-rule:evenodd;stroke:#000000;stroke-width:1px;fill:#64787f" d="m590.59 312.59h-402.65c0.83 0.7 1.74 1.38 2.62 2.07h397.44c0.88-0.69 1.76-1.37 2.59-2.07z"/>
      <path id="path4691" style="fill-rule:evenodd;stroke:#000000;stroke-width:1px;fill:#416453" d="m603.34 298.84h-428.12c3.24 4.76 7.46 9.36 12.72 13.75h402.65c5.27-4.39 9.51-8.99 12.75-13.75z"/>
      <path id="path4689" style="fill-rule:evenodd;stroke:#000000;stroke-width:1px;fill:#64787f" d="m605.19 296.09h-431.85c0.55 0.94 1.25 1.83 1.88 2.75h428.12c0.63-0.91 1.3-1.82 1.85-2.75z"/>
      <path id="path4687" style="fill-rule:evenodd;stroke:#000000;stroke-width:1px;fill:#416453" d="m609.94 284.38h-441.35c0.84 3.99 2.51 7.89 4.75 11.71h431.85c2.24-3.82 3.91-7.72 4.75-11.71z"/>
      <path id="path4685" style="fill-rule:evenodd;stroke:#000000;stroke-width:1px;fill:#64787f" d="m610.47 281.62h-442.41c0.12 0.93 0.34 1.84 0.53 2.76h441.35c0.19-0.92 0.41-1.83 0.53-2.76z"/>
      <path id="path4683" style="fill-rule:evenodd;stroke:#000000;stroke-width:1px;fill:#416453" d="m610.34 272.69h-442.15c-0.24 1.59-0.38 3.19-0.38 4.81 0 1.38 0.08 2.77 0.25 4.12h442.41c0.17-1.35 0.25-2.74 0.25-4.12 0-1.62-0.14-3.22-0.38-4.81z"/>
      <path id="path4681" style="fill-rule:evenodd;stroke:#000000;stroke-width:1px;fill:#64787f" d="m608.81 266.5h-439.06c-0.7 2.04-1.26 4.1-1.56 6.19h442.15c-0.3-2.09-0.83-4.15-1.53-6.19z"/>
      <path id="path2006" style="fill-rule:evenodd;stroke:#000000;stroke-width:1px;fill:#416453" d="m389.28 192.91c-112.47 0-205.38 32.09-219.53 73.59h439.06c-14.15-41.5-107.06-73.59-219.53-73.59z"/>
    </g>
    <path id="path13552" style="fill:#201d19" d="m427.35 250.66a78.254 48.5 0 1 1 -156.51 0 78.254 48.5 0 1 1 156.51 0z" transform="translate(-11.495 28.914)"/>
    <path id="path6518" style="fill-rule:evenodd;fill:#574a39" d="m146.14 232.34l1.92 3.75c-2.32-0.22-4.61-0.41-6.87-0.59l-5.39-4.63-0.21 4.22c-1.21-0.07-2.44-0.13-3.62-0.18-4.24 5.51-7.35 11.23-9.19 17.12-0.74 2.37-1.33 4.77-1.66 7.19-0.24 1.85-0.4 3.69-0.4 5.56 0 1.59 0.1 3.21 0.28 4.78 0.12 1.07 0.36 2.13 0.56 3.19 0.9 4.63 2.65 9.14 5.03 13.56 0.59 1.08 1.34 2.09 2 3.16 3.45 5.5 7.93 10.85 13.5 15.94 0.89 0.81 1.85 1.57 2.79 2.37 4.86 4.13 10.18 8.16 16.34 11.94 5.48 3.36 11.58 6.52 18 9.56 8.42 4 17.61 7.71 27.47 11.1 4.84 0.33 9.86 0.56 14.97 0.71l-3.78 7.22 10.06-7.09c1.4 0.02 2.81 0.05 4.22 0.06l-4.57 9.47 10.85-9.44c1.21 0 2.42-0.02 3.62-0.03l-5.72 8.97 10.22-3.87 2.94-5.22c1.05-0.03 2.09-0.07 3.12-0.1l-0.21 4.82 6.81-5.04c2.06-0.08 4.08-0.17 6.06-0.28l-0.25 4.35 5.41-4.66c1.84-0.12 3.58-0.26 5.31-0.41v2.63l3.53-2.94c13.9-1.3 23.34-3.19 23.34-5.28 0.01-5.49-51.72-51.82-69.03-66.84l-11.84-14.41-12.16-13.12-4.75 4.31c-3.33-0.6-7.4-1.29-12.5-2.13l-8.03-8.03 4.03 7.38c-1.86-0.3-3.62-0.57-5.62-0.88l-11.53-6.5 5.97 5.69c-3.69-0.54-7.5-1.09-11.38-1.6l-11.86-5.77 4.55 4.87c-0.67-0.08-1.33-0.14-2-0.22l-10.33-4.66z"/>
    <path id="path4650" style="fill-rule:evenodd;fill:#a79370" d="m430.75 173c-36.71-0.04-82.73 5.57-96.03 20.34l-4.94-0.25 2.81 3.22c-0.09 0.17-0.19 0.33-0.28 0.5l-8.56-2 7.37 8.88c0.02 0.3 0.02 0.6 0.04 0.9l-3.28-1.18 3.43 4.34c0.01 0.15 0.02 0.29 0.03 0.44l-5.87-2.72 6.06 5.75c0.07 0.83 0.17 1.62 0.25 2.44l-8.72-2.69v2.06l9.1 3.97c0.18 1.39 0.39 2.76 0.62 4.09l-6.09 0.53 2.06 1.38-2.94 0.53 8.13 3.22c0.24 1.02 0.53 2.01 0.81 3l-11.34 3.91 12.65 0.28c0.32 0.9 0.65 1.78 1 2.65l-4.03 7.03 6.75-1.24c0.66 1.22 1.35 2.44 2.1 3.62l-0.91 8.31 3.34-4.75c1.44 1.96 3 3.86 4.72 5.72l-8.25 5.91-0.16 3.59 10.97-6.87c1.35 1.32 2.77 2.64 4.29 3.93-2.81 3.67-8.17 10.99-7.19 11.97 0.66 0.67 5.62-4.24 10.78-8.72 0.93 0.4 1.6 0.81 3.65 1.25l-5.81 8.04-0.93 4.31 10.06-11.97c0.74 0.14 0.88 0.29 1.72 0.44l-7.1 10.96 9.82-9.9c1.24 0.21 3.84 0.27 4.59 1.56 4.11 13.29-0.19 4.51 4.28-0.22 2.6-1.12 7.74 0.24 9.41 0.44l-1.44 8.69 5.34-8.13c5.7 0.64 11.63 1.21 17.5 1.72-0.3 1.94-0.97 4.99-2.15 5.81 1.69-0.53 6.16-1.84 6.78-5.4 1.99 0.16 3.94 0.3 5.87 0.43 1.05 3.04 4.5 13.01 5.47 16.26 0.51 1.68 2.05-8.9 3.06-15.72 2.44 0.13 4.76 0.24 6.94 0.31l-0.81 14.84 8.75-14.72c1.11-0.01 2.13-0.05 3.06-0.09l-3.15 17.44 10.65-19c0.76-0.35 1.52-0.76 2.31-1.22l0.35 21.56 4.59-24.94c0.75-0.58 1.5-1.2 2.25-1.84l1.03 10.44 4.78-15.85c3.53-3.54 4.87-5.38 7.91-9.15l6.06 11.12-1.72-16.03c0.37-0.47 0.75-0.94 1.1-1.41l6.81 9-2.84-14.62c1.92-2.9 3.26-5.3 3.75-6.75 0.18-0.54 0.34-1.17 0.5-1.84l9.09 10.84-8.47-14.37c0.16-1.19 0.25-2.46 0.35-3.82l10.93-1.68-10.75-5.82c-0.08-3.15-0.36-6.45-0.84-9.78l8.59-4.12-9.34-0.13c-0.2-0.96-0.36-1.93-0.59-2.87l3.37-2.82-4.31-0.4c-0.3-0.96-0.62-1.92-0.97-2.85l2.47-2.56h-3.53c-0.43-0.95-0.88-1.89-1.38-2.78 0-0.01 0.01-0.02 0-0.03l0.78-1.5-1.34 0.59c-2.11-3.52-4.75-6.42-8.06-8.28-6.05-3.4-24.89-5.5-47.16-5.53zm-22.34 105.09c-0.31 0.1-0.55 0.17-0.63 0.22 0.23 0 0.43-0.08 0.63-0.22z"/>
    <path id="path10007" style="fill-rule:evenodd;stroke:#473a2a;stroke-width:1.3081px;fill:#473a2a" d="m317.72 217.62c-4.61 0.07-10.53 2.23-16.72 5.32l0.53-3.75-2.65 4.84c-0.84 0.44-1.67 0.91-2.5 1.38l-1.19-2.82-0.66 3.82c-2.04 1.17-4.05 2.43-6.03 3.68l-2.31-4.81-0.22 3.41-1.22-1.22-0.13 5.12c-1.06 0.71-2.11 1.41-3.12 2.1l-1.88-2.6-0.24 4.13c-1.1 0.77-2.14 1.5-3.13 2.22l-2.44-4.41-0.15 6.25c-4.37 3.24-7.16 5.53-7.16 5.53l26.81 31.41s6.11-4.97 12.91-10.6l2.34 1.44 1.63-4.72c0.79-0.66 1.56-1.31 2.34-1.96l1.88 1.59-0.13-3.06c0.88-0.74 1.78-1.5 2.6-2.19l4.09 1.59-1.19-4.09c0.63-0.54 1.31-1.09 1.84-1.56l6.88-1.88-4.5-0.31 0.19-0.19c6.57-6.5 12.4-21.16-0.5-31.87-1.52-1.27-3.58-1.82-5.97-1.79z"/>
    <path id="path9118" style="fill-rule:evenodd;stroke:#7a6349;stroke-width:1px;fill:#7a6349" d="m228.56 212.06c-10.03 0.12-18.65 3.25-18.65 3.25-7.93 7.93-6.92 15.6-2.53 23.78l-5.19 0.25 8.28 4.91c0.58 0.88 1.19 1.76 1.81 2.66h-5.28l6.97 2.37c0.69 0.97 1.38 1.95 2.09 2.94l-5.59 2.25 8.31 1.62c0.49 0.7 0.99 1.39 1.47 2.1l-6.34 3.15 10.21 2.91c0.58 0.98 1.12 1.97 1.66 2.97l-7.06 4.78 10.12 1c0.63 1.07 1.33 2.2 2.13 3.41l-2.28 4.53 1.72 1.37 3.43 1.38-1.03 4.15 5.57-1.31c0.73 0.94 1.49 1.91 2.28 2.88l-1.32 4.28h4.91c2.15 2.53 4.43 5.15 6.81 7.78l-8.97-0.56 14.44 9.97h3.38c2.7 2.77 5.47 5.54 8.28 8.24l-5.13 1.72 8.44 1.44c0.64 0.6 1.27 1.19 1.91 1.78l-10.69 2.28 13.97 0.69c0.59 0.53 1.19 1.07 1.78 1.59l-13.35 3.22 16.38-0.56c0.2 0.17 0.4 0.34 0.59 0.5l-11.47 2.81 14.5-0.28c1.81 1.49 3.61 2.92 5.38 4.28l-8.53 1.16 12.09 1.5c1.55 1.13 3.07 2.19 4.56 3.19l-3.21 1.15h5c2.08 1.34 4.09 2.54 6.03 3.57l-0.72 1.93 2.81-0.87c1.85 0.88 3.6 1.57 5.25 2.09l-2.22 4.97 5.56-4.16c1.92 0.31 3.65 0.28 5.13-0.15 0.89-0.26 1.88-0.61 2.91-1l1.18 3.94 2.57-5.47c1.55-0.69 3.22-1.46 4.97-2.32l1.74 4.69 0.72-5.93c2.68-1.36 5.58-2.87 8.57-4.5l-5.5 8.37 10.9-11.37c1.32-0.74 2.68-1.52 4.03-2.29l-2.56 8.16 8.06-11.28c0.93-0.53 1.88-1.06 2.82-1.59l1.5 4.28 3.31-7.04c1.62-0.92 3.21-1.81 4.84-2.74l3.19 3.59v-5.41l1.47-0.84 2.69 6.25 1.4-8.56c2-1.12 4-2.24 5.97-3.32l-1.19 7.41 4.32-9.06c2.94-1.59 5.84-3.1 8.65-4.53l-1.62 6.71 5.15-8.53c0.68-0.33 1.37-0.65 2.04-0.97l0.71 4.35 4.13-6.56c1.17-0.53 2.31-1.04 3.44-1.5l0.68 2.9 4.47-4.87c1.61-0.57 3.13-1.09 4.57-1.47l3.74 4.87 2.91-6.72c0.54-0.19 1.08-0.37 1.63-0.59l2.03 5.63 3.75-8.5c1.15-0.67 2.29-1.39 3.44-2.16l1.09 5.19 1.59-7.1c3.05-2.26 6.05-4.82 8.91-7.59l-2 5.56 3.78-7.34c1.44-1.47 2.85-2.96 4.22-4.5l-0.13-8c-0.79 0.46-1.55 0.87-2.31 1.22l-9.69 17.25-0.78 0.72 2.97-16.41c-0.93 0.04-1.95 0.08-3.06 0.09l-8.75 14.72 0.81-14.84c-2.18-0.07-4.5-0.18-6.94-0.31-1.01 6.82-2.55 17.4-3.06 15.72-0.97-3.25-4.42-13.22-5.47-16.26-1.93-0.13-3.88-0.27-5.87-0.43-0.62 3.56-5.09 4.87-6.78 5.4-0.2 0.14-0.4 0.22-0.63 0.22 0.08-0.05 0.32-0.12 0.63-0.22 1.18-0.82 1.85-3.87 2.15-5.81-1.86-0.16-3.72-0.36-5.59-0.53-0.86 0.8-1.97 1.82-2.88 2.66h-5.93l4.68 1.15c-0.62 0.58-1.25 1.18-1.9 1.78l-7.6 1.19 4.5 1.66c-0.3 0.27-0.5 0.47-0.81 0.75-0.17 0.15-0.36 0.29-0.53 0.44l-6.94 0.93 1.28 2.31c-0.33 0.13-0.65 0.27-1 0.38l-9.9-2.69 6.37 3.63c-0.33 0.07-0.66 0.13-1 0.18l-14.69-2.43 6.16 3.09c-3.99-0.01-8.24-0.4-12.59-1.06l-5.94-5.13 3.5 4.72c-1.02-0.17-2.04-0.33-3.06-0.53l-8.35-4.53 2.66 3.28c-0.79-0.18-1.59-0.36-2.38-0.56l-6.12-4.09-0.81 2.24c-0.42-0.12-0.83-0.25-1.25-0.37l-1.72-4.63-2.38 3.38c-2.4-0.75-4.75-1.51-7-2.28l-5.4-4.88 0.53 3.16c-0.69-0.25-1.44-0.51-2.09-0.75h-0.04l-6.31-4.81 0.38 2.53c-0.37-0.14-0.66-0.27-1-0.41l-4.19-7.62-1.53 5.28c-2.44-1.04-3.94-1.72-3.94-1.72s-0.64-0.42-1.13-0.75l2.47-5.56-9.28 0.78c-0.89-0.64-1.87-1.34-2.87-2.06l0.47-4.91-4.75 1.78c-0.18-0.13-0.36-0.27-0.54-0.4l2.19-6.19-5.19-0.69-2.34 2.78c-1.01-0.78-2.03-1.59-3.06-2.4l-3.88-9.66 0.25 6.75c-0.85-0.7-1.71-1.38-2.56-2.09l-5.94-11.19 0.44 6.43c-0.99-0.88-2.01-1.76-2.97-2.65l-0.03-0.03-5.69-10.97-0.43 4.97c-0.68-0.71-1.34-1.43-1.97-2.13l-1.38-8.34-2.37 3.94c-0.64-0.82-1.24-1.62-1.78-2.41-1.12-1.62-2.37-3.02-3.72-4.22l-1.41-4.87-1.28 2.78c-5.55-3.64-12.26-4.7-18.44-4.63zm244.85 45.25c-0.88 0.99-1.81 2.02-3.07 3.28l-0.93 3.13c1.45-2.19 2.79-4.33 4-6.41zm-8.88 8.69c-0.75 0.64-1.5 1.26-2.25 1.84l-1.34 7.35c1.39-1.7 2.72-3.41 4-5.13l-0.41-4.06zm-19.59 24.44l-0.56 1 0.09-0.56 0.47-0.44z"/>
    <path id="path14441" style="fill-rule:evenodd;stroke:#b5a78f;stroke-width:1px;fill:#b5a78f" d="m406.09 116.44l4.94 9.53c-1.13-0.05-2.26-0.11-3.41-0.13l-4.71-6.22 2.93 6.19c-0.93 0-1.85 0.04-2.78 0.07l-3.72-5.32 1.75 5.41c-1.14 0.05-2.27 0.1-3.4 0.19l-8.85-6.16 6.22 6.41c-1.88 0.19-3.75 0.42-5.59 0.71l-9.44-6.56 6.69 7.03c-0.98 0.19-1.94 0.42-2.91 0.63l-11.47-6.34 7.32 7.31c-1.79 0.47-3.53 1-5.25 1.56l-9.38-7.37 8.13 7.78c-0.76 0.26-1.51 0.53-2.25 0.81l-8.88-3.16 7.09 3.85c-0.24 0.09-0.47 0.18-0.71 0.28l-9.6-0.16 5.28 2.06c-0.34 0.17-0.69 0.31-1.03 0.47l-8.56 0.47 1.34 3.53c-0.08 0.06-0.16 0.13-0.25 0.19l-9.9-5.78 8.03 7c-0.17 0.11-0.34 0.23-0.5 0.34l-12.6-3.4 9.88 5.37c-1 0.76-1.97 1.55-2.91 2.35l-3.78-2.66 2.6 3.69c-0.1 0.08-0.19 0.16-0.29 0.25l-10.74-6.75 9.46 7.9c-0.56 0.55-1.11 1.1-1.65 1.66l-11.38-8.44-1.87 0.38 12.22 9.15c-0.63 0.68-1.24 1.37-1.82 2.06l-6.46-4.65 5.4 6c-0.18 0.23-0.38 0.45-0.56 0.69l-6.53-3.13 5.47 4.66c-1.21 1.73-2.3 3.51-3.25 5.34l-4.85-5.69 4.13 6.75v0.41c-0.42 0.87-0.81 1.74-1.16 2.62l-3.44-0.56-0.68 2.06 3.31 0.72c-0.53 1.59-0.98 3.18-1.31 4.82l-3.03-0.72 2.62 3.03c-0.12 0.85-0.24 1.73-0.31 2.59l-2.66 0.56 2.56 1.13c-0.01 0.45-0.03 0.89-0.03 1.34l-7 3.72 7.03-1.93c0.02 0.52 0.06 1.07 0.1 1.59l-2.85 5.69 3.13-3.22c0.36 2.55 0.98 5.03 1.81 7.47l-4.75 2.62 5.44-0.75c0.39 1 0.84 2 1.31 2.97l-6.25 1.56 0.35 1.38 6.84-1.07c0.85 1.58 1.77 3.1 2.81 4.6l-3.62 4.22 4.81-2.53c1.04 1.38 2.18 2.72 3.37 4.03l-8.03 5.72-0.15 1.72 9.18-6.41c0.49 0.5 0.97 1.01 1.47 1.5l-6.18 3.69 7.9-2.1c1.15 1.04 2.35 2.03 3.6 3l-1.54 3.06h1.72l0.19 1.54 2.06-0.85 1.94-0.59c1.63 1.08 3.33 2.08 5.09 3.06l-4.28 3.19 5.94-2.28c0.3 0.15 0.6 0.31 0.91 0.47l-4.29 3.87 5.97-3.03c1.23 0.59 2.48 1.15 3.75 1.69l-6.62 3.75 9.25-2.69c1.5 0.58 3.06 1.12 4.62 1.63l-3.37 4.5 5.75-3.76c1.39 0.42 2.79 0.81 4.22 1.16v3.81l2.25-0.87 1.87 1.56 1.75-3.25c1.6 0.29 3.21 0.56 4.85 0.78l0.62 4.69 1.25-4.47c1.56 0.18 3.13 0.36 4.72 0.47l-0.28 7.09 1.9-7.03c0.35 0.02 0.69 0.05 1.04 0.06l1 6.97 0.56-6.9c1.09 0.03 2.18 0.06 3.28 0.06 0.69 0 1.38-0.02 2.06-0.03l0.13 5.16 1.53-5.19c1.9-0.07 3.76-0.18 5.62-0.35l0.57 5.19 2.78-3.25-0.66-2.22c0.86-0.1 1.72-0.22 2.56-0.34l0.16 6.69 1.75-6.97c0.69-0.11 1.38-0.22 2.06-0.35l0.13 5.6 1.37-1.57-0.09-4.31c1.78-0.34 3.55-0.72 5.28-1.15l1.19 7.03 0.12-7.35c1.25-0.33 2.47-0.68 3.69-1.06l3.06 7.88-1.31-8.47c1.51-0.5 3.02-1.03 4.47-1.6l3.53 7.66-2.25-8.19c0.6-0.24 1.19-0.49 1.78-0.75l1.35 4.47-0.22-5c1.45-0.66 2.86-1.34 4.25-2.06l2.65 4.5 0.88-1.72-1.97-3.59c0.67-0.37 1.35-0.74 2-1.13l5.31 3-2.62-4.66c1.59-1.03 3.09-2.15 4.56-3.28l5.97 3.47-3.41-5.5c1.41-1.19 2.74-2.44 4-3.72l4.38 2.35-0.35-2.75-2.06-1.66c1.21-1.34 2.33-2.74 3.37-4.15l3.85 4.78-2.28-7.04c0.27-0.41 0.52-0.83 0.78-1.24l4.59 2.24 0.69-1.21-3.59-3.94c0.38-0.75 0.72-1.52 1.06-2.28l4.44 2.28 0.15-1.38-3.72-2.93c0.88-2.24 1.56-4.53 2.03-6.88l4.63-0.5-0.53-2.06-3.78 0.72c0.12-0.8 0.23-1.6 0.31-2.41l3.31-2.44-3.15 0.38c0.02-0.56 0.03-1.12 0.03-1.69 0-0.36-0.02-0.7-0.03-1.06l3.78-0.63-3.81-0.68c-0.06-0.86-0.18-1.72-0.29-2.57l6.35-2.56-6.53 1.19c-0.12-0.72-0.23-1.44-0.38-2.16l6.91-2.03-7.32 0.38c-0.15-0.58-0.32-1.15-0.5-1.72l3.13-2.03-3.63 0.47c-0.24-0.71-0.52-1.41-0.81-2.1l3.88-6.62-5.81 2.46c-0.34-0.62-0.67-1.26-1.04-1.87l2.35-3.78-3.53 1.91c-0.42-0.65-0.86-1.28-1.32-1.91l4.47-8.06-5.43 4.12v-3.19l-3.47 1.75c-0.4-0.42-0.81-0.83-1.22-1.25l0.56-1.43 3.56-2.63-7.34 1.06c-0.65-0.56-1.32-1.11-2-1.65l5.78-10.28-7.97 8.59c-2.98-2.2-6.2-4.24-9.66-6.06l-2.62-8.19 1.12 7.44c-1.04-0.53-2.1-1.05-3.18-1.53v-4.22l-2.63 1.12v-2.06l-1.69 0.75-0.78-1.87-1.12 1.5-2.25-2.63 0.72 4.37c-1.84-0.62-3.71-1.22-5.63-1.74l0.97-3.94-3.12 3.37c-2.51-0.62-5.08-1.13-7.69-1.56l-0.81-6.69-1 6.38c-2.51-0.37-5.07-0.63-7.66-0.82l-7.66-9.68z"/>
    <path id="path8252" style="fill-rule:evenodd;stroke:#a38765;stroke-width:1px;fill:#a38765" d="m369.36 153.6c3.45-3.69 6.99-7.26 10.85-10.51 0.84-0.85 2.47-1.97 3.3-2.59 4.01-2.42 8.66-4.41 13.35-4.92h14.73c3.24 0.11 6.23 1.5 9 3.08 2.21 0.72 4.21 1.91 6.31 2.89 2.73 1.07 5.16 2.72 7.85 3.85 1.69 0.6 2.91 1.88 4.21 3.07 2.06 2.24 3.5 4.93 5.35 7.32 1.05 1.52 1.39 3.44 1.92 5.2 0.62 5.81 0.19 11.67 0.19 17.51v14.63c0.37 3.03-0.87 5.43-3.06 7.43-2.56 0.83-5.16 1.2-7.9 1.17-2.02 0.06-4.05 0.17-6.07 0.25-4.24-0.46-7.93-3.46-10.72-6.54-0.79-0.6-1.05-1.44-1.53-1.93-0.6-0.6-0.93-1.29-1.34-2.12-0.5-1.01-0.75-1.05-1.91-1.34-5.01 2.65-12.6 6-17.42 1.54-1.4-1.09-2.6-2.33-4.4-2.5-2.52 0.85-4.51 2.21-6.7 3.46-1.65 0.62-3.61 1.09-5.49 2.1-2.19 0.97-3.16 0.69-5.29 1.23-3.38-1.43-7.38-2.48-9.73-5.28-2.84-2.33-3.16-5.99-3.41-9.41v-5.77c-1.27-4.82 1.91-8.82 2.75-13.17 0.61-1.5 1.59-2.73 2.48-3.91 0.24-2.02 1.21-3.44 2.68-4.74z"/>
    <path id="path4710" style="stroke-linejoin:round;stroke:#151515;stroke-width:1px;fill:#14140d" d="m401.97 189.55l-3.8 12.2-12.14 5.81-11.59 6.71 12.71-5.77 7.22-0.28 3.61 3.14 1.22 1.55 2.39-2.35 2.72-0.28 3.29 0.42 7.92 7.04-8.3-9.8-4.13-5.16-1.12-13.23z"/>
    <path id="path2041" style="stroke-linejoin:round;fill-rule:evenodd;stroke-width:1px;fill:#282f2d" d="m406.46 141.12c-1.27 0.32-2.38 0.24-3.54 0.81-1.72 1.43-3.12 3.25-4.63 4.91-1.16 1.16-2.2 1.38-3.27 2.45-2.99 2.37-5.97 4.75-8.99 7.08-0.76 0.76-1.88 1.22-2.45 1.91-1.17 1.41-1.15 2.76-1.36 3.81-0.3 1.5 0.27 2.73 0.54 3.82 2.12 2.78 4.52 4.23 7.18 6.59 0.5 0.25 2.73 1.62 3.29 2.18 0.81 0.81 3.14 0.77 3.88 1.52 0.97 0.97 1.5 2.21 2.06 3.58 0.4 0.99 1.15 2.06 1.19 2.97 0.13 2.71 0.82 6.8 1.46 6.8 1.37 0 4.32-5.2 5.83-7.5 0.76-1.17 1.57-2.93 2.59-3.18 0.77-0.19 1.99-0.69 2.57-0.65 0.67 0.04 1.81-0.05 3.46-0.05h4.09 4.08c1.29 0 2-0.92 2.73-1.64 0.91-0.91 1.68-1.19 2.18-2.18 0.46-0.92 0.31-2.6 0.54-3.54 0.33-1.33 0.27-2.67 0.27-4.08 0-1.7-0.24-2.67-0.81-3.82-0.56-1.12-1.23-2.04-1.91-2.72-0.83-0.83-1.91-1.38-2.45-2.45-0.71-1.42-1.75-1.8-2.18-3.55-0.38-1.51-1.27-1.78-1.64-3.27-0.23-0.93-1.1-2.48-1.63-3.54-0.62-1.24-0.82-2.45-1.64-3.54-0.7-0.94-0.77-1.86-1.63-2.72-3.32-1.64-6.31-1.12-9.81 0z"/>
    <path id="path2043" style="fill-rule:evenodd;stroke-width:1px;fill:#070705" d="m384.33 167.42c-0.84-0.85 1.82-2.55 2.45-3.8 0.31-0.98 0.79-1.55 1.59-2.16 0.78-0.7 1.61-1.27 2.53-1.78 0.31-0.15 0.66-0.37 1.03-0.47 1.6-0.39 3.24-0.47 4.88-0.47 1.45 0.6 2.84 1.46 3.66 2.82 0.51 0.86 1.08 1.67 1.59 2.53 0.26 0.26 0.28 0.87 0.28 1.22 0 0.63 0.05 1.31-0.09 1.88-0.31 0.9-0.83 1.71-1.31 2.53-0.44 0.94-1.09 1.61-1.76 2.4-1.14 0.95-1.9 2.93-3.78 3.29-5.09-1.16-8.32-4.8-11.07-7.99z"/>
    <path id="path2045" style="fill-rule:evenodd;stroke-width:1px;fill:#080805" d="m412.29 178.25c-1.18-1.4-1.28-3.11-1.97-4.97-0.47-1.26-0.8-2.79-0.57-3.94 1.16-1.65 2.76-2.87 4.32-4.12 1.59-0.54 2.45-0.83 3.51-1.32 1.64-0.41 2.95-0.15 4.46 0.19 0.95 0.75 1.62 1.79 2.25 2.81 2.03 3.59 1.24 7.44 0.38 11.26-7.27 0.09-7.51-0.07-12.38 0.09z"/>
    <path id="path2047" style="fill-rule:evenodd;stroke:#43383a;stroke-width:1px;fill:#483d3f" d="m368.58 150.87c-0.21-0.43-0.51-0.99-0.75-1.32-0.29-0.38-0.5-0.5-0.84-0.84-0.31-0.31-0.48-0.38-0.85-0.56-0.4-0.2-0.82-0.19-1.31-0.19-0.45 0-0.99 0.1-1.31 0.19-0.52 0.13-0.7 0.42-0.94 0.75-0.29 0.39-0.61 0.6-0.85 0.84-0.26 0.27-0.57 0.98-0.65 1.31-0.11 0.43-0.37 0.74-0.47 1.13-0.12 0.46-0.27 0.69-0.38 1.13-0.12 0.49-0.28 0.81-0.28 1.31 0 0.41-0.28 0.81-0.28 1.31v1.41c0 0.54 0.07 0.83 0.19 1.31s0.19 1.03 0.28 1.41c0.11 0.46 0.36 0.82 0.66 1.12 0.44 0.45 0.58 0.34 1.12 0.47 0.52 0.13 1.01 0.16 1.5 0.28 0.62 0.16 0.78-0.31 1.13-0.65 0.33-0.34 0.59-0.9 0.75-1.22 0.13-0.27 0.55-0.93 0.75-1.13 0.28-0.28 0.34-0.62 0.66-0.94 0.73-1.74 0.83-1.67 1.5-2.72 0.14-0.28 0.5-1.37 0.56-1.59 0.1-0.39 0.11-0.9 0.19-1.22-0.18-0.56 0.15-0.78-0.38-1.59z"/>
    <path id="path2049" style="fill-rule:evenodd;stroke:#000000;stroke-width:1px;fill:#060604" d="m369.03 153.36c-0.78-0.71-2.49-0.41-2.49-0.41s-1.07 0.17-1.62 0.82c-0.55 0.66-0.58 1.81-0.58 1.81l-0.61 1.89-0.21 1.84s0.26 1.98 1.13 1.5c0.53-0.56 3.81-4.78 4.38-7.45z"/>
    <path id="path17999" style="stroke:#000000;stroke-width:1px;fill:none" d="m371.77 169.72s-58.34 25.51-59.09 32.26"/>
    <path id="path18001" style="stroke:#000000;stroke-width:1px;fill:none" d="m370.83 174.03s-50.27 23.45-57.58 34.52"/>
    <path id="path18003" style="stroke:#000000;stroke-width:1px;fill:none" d="m374.21 173.28c-44.27 40.33-44.64 57.77-44.64 57.77"/>
    <path id="path18005" style="stroke:#000000;stroke-width:1px;fill:none" d="m373.46 176.47c-39.02 19.88-54.96 50.83-54.96 50.83"/>
    <path id="path18007" style="stroke:#000000;stroke-width:1px;fill:none" d="m373.27 178.53s-40.52 47.27-35.08 52.9"/>
    <path id="path18009" style="stroke:#000000;stroke-width:1px;fill:none" d="m372.52 184.91c-29.45 39.77-21.57 43.33-21.57 43.33"/>
    <path id="path18013" style="stroke:#000000;stroke-width:1px;fill:none" d="m375.52 187.72s-23.63 36.02-19.32 39.58"/>
    <path id="path18015" style="stroke:#000000;stroke-width:1px;fill:none" d="m379.27 190.16s-17.82 21.95-14.25 26.26"/>
    <path id="path18017" style="stroke:#000000;stroke-width:1px;fill:none" d="m381.34 191.1s-10.13 17.45-6.94 18.57"/>
    <path id="path18019" style="stroke:#000000;stroke-width:1px;fill:none" d="m386.21 189.79s-7.12 8.63-5.25 16.69"/>
    <path id="path18021" style="stroke:#000000;stroke-width:1px;fill:none" d="m389.21 189.04c3.7-1.52-0.55 12-0.56 12"/>
    <path id="path18023" style="stroke:#000000;stroke-width:1px;fill:none" d="m442.3 174.59s37.7 46.9 28.32 48.02"/>
    <path id="path18025" style="stroke:#000000;stroke-width:1px;fill:none" d="m443.42 182.29s37.52 27.94 35.83 32.26"/>
    <path id="path18027" style="stroke:#000000;stroke-width:1px;fill:none" d="m440.61 178.72s50.46 47.27 45.77 48.96"/>
    <path id="path18029" style="stroke:#000000;stroke-width:1px;fill:none" d="m438.55 183.41s51.39 58.34 46.14 60.59"/>
    <path id="path18031" style="stroke:#000000;stroke-width:1px;fill:none" d="m438.36 189.6s35.64 47.64 33.76 51.4"/>
    <path id="path18033" style="stroke:#000000;stroke-width:1px;fill:none" d="m437.23 194.1s33.95 47.08 29.83 55.34"/>
    <path id="path18035" style="stroke:#000000;stroke-width:1px;fill:none" d="m434.61 196.54s31.7 61.71 15.57 61.71"/>
    <path id="path18037" style="stroke:#000000;stroke-width:1px;fill:none" d="m430.48 195.42s20.82 51.02 12.75 53.08"/>
    <path id="path18039" style="stroke:#000000;stroke-width:1px;fill:none" d="m426.17 195.98s14.81 33.95 11.06 38.64"/>
    <path id="path18041" style="stroke:#000000;stroke-width:1px;fill:none" d="m424.1 194.1s6.76 27.01 2.63 28.14"/>
    <path id="path18043" style="stroke:#000000;stroke-width:1px;fill:none" d="m420.91 190.91s-0.37 20.82-6.56 19.14"/>
    <path id="path18045" style="stroke:#000000;stroke-width:1px;fill:none" d="m417.73 187.35s0.75 4.88-5.63 11.25"/>
    <path id="path10005" style="fill-rule:evenodd;fill:#14160d" d="m205.54 237.06s8.86-4.88 6.79-9.19c-2.06-4.32 4.64 4.04 10.88-3.01 5.82-6.56 0.12-8.71 4.13-8.06 7.8 2.77 19.17 0.19 16.87-2.48-2.22-2.59-21.2-7.74-33-0.71-5.94 3.53-8.21 9.06-8.15 13.86 0.08 5.26 2.79 9.65 2.48 9.59z"/>
    <path id="path11932" style="fill-rule:evenodd;fill:#000000" d="m315.68 232.12c-1.1-1.69-3.47 0.2-5.42-0.77-1.22-0.61-2.77-1.58-3.86-2.33-2.01-1.37-2.45-1.34-3.44-0.34-1 3.27-2.13 6.7 0.34 10.66 3.95 3.89 7.89 7.61 13.41 8.6 2.01 0.5 3.87-0.09 4.82-1.03 1.54-1.55 1.39-2.91 0.51-3.79-3.46-2.42-4.79-3.5-5.16-6.36 0.35-0.77 0.28-3.52-1.2-4.64z"/>
    <path id="path11928" style="fill-rule:evenodd;fill:#000000" d="m319.55 220.26c-3.85-0.32-6.38-0.31-9.72 1.54-1.88 0.86-1.03 3.17-1.03 5.51 0 1.59 2.41 3.26 3.44 3.26 1.54 0 5.33 0.29 6.88-0.51 1.98-1.04 1.39-2.64 2.23-4.13 1.05-1.85 1.17-5.68-1.8-5.67z"/>
    <path id="path2051" style="fill-rule:evenodd;fill:#483d3f" d="m465.65 171.5c-0.42-0.32-0.51-0.79-0.75-1.03-0.38-0.38-0.53-0.54-0.84-0.85-0.37-0.36-0.66-0.56-0.94-0.84-0.34-0.34-0.42-0.38-1.03-0.38h-1.41c-0.55 0-0.8 0.1-1.31 0.1-0.34 0-0.63 0.53-0.85 0.75-0.28 0.29-0.51 0.41-0.75 0.66-0.35 0.35-0.54 0.64-0.94 0.84-0.32 0.16-0.61 0.67-0.84 0.84-0.38 0.29-0.69 0.82-0.84 1.13-0.22 0.43-0.29 0.92-0.29 1.41v1.5c0 0.52 0.19 0.74 0.29 1.12 0.1 0.4 0.55 0.64 0.75 1.03 0.19 0.4 0.45 0.89 0.56 1.32 0.07 0.29 0.86 0.77 1.03 0.93 0.4 0.41 1.01 0.81 1.31 1.04 0.46 0.34 0.93 0.64 1.22 0.93 0.37 0.37 0.63 0.46 1.03 0.66 0.38 0.19 0.7 0.19 1.22 0.19 0.56 0 0.84-0.09 1.22-0.28 0.54-0.27 0.77-0.58 1.03-0.85 0.81-0.89 1-0.99 1.51-1.97 0.44-1.15 0.71-1.5 0.75-2.44v-1.4c0-0.47 0-1.41 0.09-1.88-0.33-1.07-0.31-1.31-1.22-2.53z"/>
    <path id="path2053" style="fill-rule:evenodd;stroke:#000000;stroke-width:1px;fill:#060705" d="m454.89 174.24c0.05-0.18 1.36-0.43 1.66-0.58 0.48-0.24 1.06 0.09 1.6 0.09s0.66 0.35 1.12 0.47c0.19 0.05 0.67 0.85 0.75 0.94 0.28 0.27 0.48 0.58 0.66 0.94 0.21 0.42 0.24 0.66 0.47 1.12 0.17 0.35 0.1 0.88 0.19 1.31 0.08 0.43 0 0.97 0 1.41 0 0.55-0.02 1.05-0.38 1.22-0.52 0.25-0.86 0.06-1.12 0.09-0.4 0.06-0.66-0.13-1.05-0.27-0.43-0.15-0.54-0.45-0.94-0.65-0.27-0.14-0.86-0.64-1.11-0.89-0.31-0.3-0.4-0.82-0.59-1.25-0.19-0.42-0.47-0.46-0.72-0.97-0.2-0.39-0.52-0.95-0.52-1.39 0-0.6-0.01-1.05-0.02-1.59z"/>
    <path id="path11930" style="fill-rule:evenodd;fill:#000000" d="m322.21 229.02c-1.18 0.65-2.36 1.49-3.86 2.76-0.72 0.6-0.61 4.36-0.61 5.15 0 1.78 2.38 3.09 3.79 3.79 2 1 3.48 0.98 4.81-0.35 0.77-0.76 1.38-3.22 1.38-4.64 0-1.76 0.53-3.44 0.86-4.73-0.81-3.99-3-3.37-6.37-1.98z"/>
  </g>
  <metadata>
    <rdf:RDF>
      <cc:Work>
        <dc:format>image/svg+xml</dc:format>
        <dc:type rdf:resource="http://purl.org/dc/dcmitype/StillImage"/>
        <cc:license rdf:resource="http://creativecommons.org/licenses/publicdomain/"/>
        <dc:publisher>
          <cc:Agent rdf:about="http://openclipart.org/">
            <dc:title>Openclipart</dc:title>
          </cc:Agent>
        </dc:publisher>
        <dc:title>Sea otter</dc:title>
        <dc:date>2008-04-14T00:34:24</dc:date>
        <dc:description>A sea otter on his back. placed above a circular background.</dc:description>
        <dc:source>https://openclipart.org/detail/16353/sea-otter-by-markc09</dc:source>
        <dc:creator>
          <cc:Agent>
            <dc:title>markc09</dc:title>
          </cc:Agent>
        </dc:creator>
        <dc:subject>
          <rdf:Bag>
            <rdf:li>animal</rdf:li>
            <rdf:li>cute</rdf:li>
            <rdf:li>otter</rdf:li>
          </rdf:Bag>
        </dc:subject>
      </cc:Work>
      <cc:License rdf:about="http://creativecommons.org/licenses/publicdomain/">
        <cc:permits rdf:resource="http://creativecommons.org/ns#Reproduction"/>
        <cc:permits rdf:resource="http://creativecommons.org/ns#Distribution"/>
        <cc:permits rdf:resource="http://creativecommons.org/ns#DerivativeWorks"/>
      </cc:License>
    </rdf:RDF>
  </metadata>
</svg>
